<svg width="200" height="200" viewBox="0 0 8 8" fill="none" xmlns="http://www.w3.org/2000/svg">
  <rect x="0" y="0" width="1" height="1" fill="black"/>
  <rect x="2" y="0" width="1" height="1" fill="black"/>
  <rect x="4" y="0" width="1" height="1" fill="black"/>
  <rect x="6" y="0" width="1" height="1" fill="black"/>
  <rect x="1" y="1" width="1" height="1" fill="black"/>
  <rect x="3" y="1" width="1" height="1" fill="black"/>
  <rect x="5" y="1" width="1" height="1" fill="black"/>
  <rect x="7" y="1" width="1" height="1" fill="black"/>
  <rect x="0" y="2" width="1" height="1" fill="black"/>
  <rect x="2" y="2" width="1" height="1" fill="black"/>
  <rect x="4" y="2" width="1" height="1" fill="black"/>
  <rect x="6" y="2" width="1" height="1" fill="black"/>
  <rect x="1" y="3" width="1" height="1" fill="black"/>
  <rect x="3" y="3" width="1" height="1" fill="black"/>
  <rect x="5" y="3" width="1" height="1" fill="black"/>
  <rect x="7" y="3" width="1" height="1" fill="black"/>
    <rect x="0" y="4" width="1" height="1" fill="black"/>
  <rect x="2" y="4" width="1" height="1" fill="black"/>
  <rect x="4" y="4" width="1" height="1" fill="black"/>
  <rect x="6" y="4" width="1" height="1" fill="black"/>
  <rect x="1" y="5" width="1" height="1" fill="black"/>
  <rect x="3" y="5" width="1" height="1" fill="black"/>
  <rect x="5" y="5" width="1" height="1" fill="black"/>
  <rect x="7" y="5" width="1" height="1" fill="black"/>
    <rect x="0" y="6" width="1" height="1" fill="black"/>
  <rect x="2" y="6" width="1" height="1" fill="black"/>
  <rect x="4" y="6" width="1" height="1" fill="black"/>
  <rect x="6" y="6" width="1" height="1" fill="black"/>
  <rect x="1" y="7" width="1" height="1" fill="black"/>
  <rect x="3" y="7" width="1" height="1" fill="black"/>
  <rect x="5" y="7" width="1" height="1" fill="black"/>
  <rect x="7" y="7" width="1" height="1" fill="black"/>
</svg>